<svg xmlns="http://www.w3.org/2000/svg" viewBox="0 0 1440 250"><path fill="#fff" fill-opacity="1" d="M0,160L30,170.7C60,181,120,203,180,202.7C240,203,300,181,360,165.3C420,149,480,139,540,144C600,149,660,171,720,176C780,181,840,171,900,160C960,149,1020,139,1080,144C1140,149,1200,171,1260,176C1320,181,1380,171,1410,165.3L1440,160L1440,320L1410,320C1380,320,1320,320,1260,320C1200,320,1140,320,1080,320C1020,320,960,320,900,320C840,320,780,320,720,320C660,320,600,320,540,320C480,320,420,320,360,320C300,320,240,320,180,320C120,320,60,320,30,320L0,320Z"></path></svg>